<svg width="296" height="229" viewBox="0 0 296 229" fill="none" xmlns="http://www.w3.org/2000/svg">
<path fill-rule="evenodd" clip-rule="evenodd" d="M4.64189 0H0V4.64189H4.64189V0ZM4.64189 23.2096H0V27.8515H4.64189V23.2096ZM23.2092 0H27.8511V4.64189H23.2092V0ZM27.8511 23.2096H23.2092V27.8515H27.8511V23.2096ZM44.8717 0H49.5136V4.64189H44.8717V0ZM49.5136 23.2096H44.8717V27.8515H49.5136V23.2096ZM66.5341 0H71.176V4.64189H66.5341V0ZM71.176 23.2096H66.5341V27.8515H71.176V23.2096ZM89.7433 0H94.3852V4.64189H89.7433V0ZM94.3852 23.2096H89.7433V27.8515H94.3852V23.2096ZM111.405 0H116.047V4.64189H111.405V0ZM116.047 23.2096H111.405V27.8515H116.047V23.2096ZM134.615 0H139.257V4.64189H134.615V0ZM139.257 23.2096H134.615V27.8515H139.257V23.2096ZM156.277 0H160.919V4.64189H156.277V0ZM160.919 23.2096H156.277V27.8515H160.919V23.2096ZM179.487 0H184.129V4.64189H179.487V0ZM184.129 23.2096H179.487V27.8515H184.129V23.2096ZM201.148 0H205.79V4.64189H201.148V0ZM205.79 23.2096H201.148V27.8515H205.79V23.2096ZM224.358 0H229V4.64189H224.358V0ZM229 23.2096H224.358V27.8515H229V23.2096ZM246.02 0H250.662V4.64189H246.02V0ZM250.662 23.2096H246.02V27.8515H250.662V23.2096ZM267.682 0H272.324V4.64189H267.682V0ZM272.324 23.2096H267.682V27.8515H272.324V23.2096ZM290.892 0H295.534V4.64189H290.892V0ZM295.534 23.2096H290.892V27.8515H295.534V23.2096ZM0 47.9662H4.64189V52.6081H0V47.9662ZM27.8511 47.9662H23.2092V52.6081H27.8511V47.9662ZM44.8717 47.9662H49.5136V52.6081H44.8717V47.9662ZM71.176 47.9662H66.5341V52.6081H71.176V47.9662ZM89.7433 47.9662H94.3852V52.6081H89.7433V47.9662ZM116.047 47.9662H111.405V52.6081H116.047V47.9662ZM134.615 47.9662H139.257V52.6081H134.615V47.9662ZM160.919 47.9662H156.277V52.6081H160.919V47.9662ZM179.487 47.9662H184.129V52.6081H179.487V47.9662ZM205.79 47.9662H201.148V52.6081H205.79V47.9662ZM224.358 47.9662H229V52.6081H224.358V47.9662ZM250.662 47.9662H246.02V52.6081H250.662V47.9662ZM267.682 47.9662H272.324V52.6081H267.682V47.9662ZM295.534 47.9662H290.892V52.6081H295.534V47.9662ZM0 72.7229H4.64189V77.3648H0V72.7229ZM27.8511 72.7229H23.2092V77.3648H27.8511V72.7229ZM44.8717 72.7229H49.5136V77.3648H44.8717V72.7229ZM71.176 72.7229H66.5341V77.3648H71.176V72.7229ZM89.7433 72.7229H94.3852V77.3648H89.7433V72.7229ZM116.047 72.7229H111.405V77.3648H116.047V72.7229ZM134.615 72.7229H139.257V77.3648H134.615V72.7229ZM160.919 72.7229H156.277V77.3648H160.919V72.7229ZM179.487 72.7229H184.129V77.3648H179.487V72.7229ZM205.79 72.7229H201.148V77.3648H205.79V72.7229ZM224.358 72.7229H229V77.3648H224.358V72.7229ZM250.662 72.7229H246.02V77.3648H250.662V72.7229ZM267.682 72.7229H272.324V77.3648H267.682V72.7229ZM295.534 72.7229H290.892V77.3648H295.534V72.7229ZM0 97.4796H4.64189V102.121H0V97.4796ZM27.8511 97.4796H23.2092V102.121H27.8511V97.4796ZM44.8717 97.4796H49.5136V102.121H44.8717V97.4796ZM71.176 97.4796H66.5341V102.121H71.176V97.4796ZM89.7433 97.4796H94.3852V102.121H89.7433V97.4796ZM116.047 97.4796H111.405V102.121H116.047V97.4796ZM134.615 97.4796H139.257V102.121H134.615V97.4796ZM160.919 97.4796H156.277V102.121H160.919V97.4796ZM179.487 97.4796H184.129V102.121H179.487V97.4796ZM205.79 97.4796H201.148V102.121H205.79V97.4796ZM224.358 97.4796H229V102.121H224.358V97.4796ZM250.662 97.4796H246.02V102.121H250.662V97.4796ZM267.682 97.4796H272.324V102.121H267.682V97.4796ZM295.534 97.4796H290.892V102.121H295.534V97.4796ZM0 123.784H4.64189V128.426H0V123.784ZM27.8511 123.784H23.2092V128.426H27.8511V123.784ZM44.8717 123.784H49.5136V128.426H44.8717V123.784ZM71.176 123.784H66.5341V128.426H71.176V123.784ZM89.7433 123.784H94.3852V128.426H89.7433V123.784ZM116.047 123.784H111.405V128.426H116.047V123.784ZM134.615 123.784H139.257V128.426H134.615V123.784ZM160.919 123.784H156.277V128.426H160.919V123.784ZM179.487 123.784H184.129V128.426H179.487V123.784ZM205.79 123.784H201.148V128.426H205.79V123.784ZM224.358 123.784H229V128.426H224.358V123.784ZM250.662 123.784H246.02V128.426H250.662V123.784ZM267.682 123.784H272.324V128.426H267.682V123.784ZM295.534 123.784H290.892V128.426H295.534V123.784ZM0 148.54H4.64189V153.182H0V148.54ZM27.8511 148.54H23.2092V153.182H27.8511V148.54ZM44.8717 148.54H49.5136V153.182H44.8717V148.54ZM71.176 148.54H66.5341V153.182H71.176V148.54ZM89.7433 148.54H94.3852V153.182H89.7433V148.54ZM116.047 148.54H111.405V153.182H116.047V148.54ZM134.615 148.54H139.257V153.182H134.615V148.54ZM160.919 148.54H156.277V153.182H160.919V148.54ZM179.487 148.54H184.129V153.182H179.487V148.54ZM205.79 148.54H201.148V153.182H205.79V148.54ZM224.358 148.54H229V153.182H224.358V148.54ZM250.662 148.54H246.02V153.182H250.662V148.54ZM267.682 148.54H272.324V153.182H267.682V148.54ZM295.534 148.54H290.892V153.182H295.534V148.54ZM0 173.297H4.64189V177.939H0V173.297ZM27.8511 173.297H23.2092V177.939H27.8511V173.297ZM44.8717 173.297H49.5136V177.939H44.8717V173.297ZM71.176 173.297H66.5341V177.939H71.176V173.297ZM89.7433 173.297H94.3852V177.939H89.7433V173.297ZM116.047 173.297H111.405V177.939H116.047V173.297ZM134.615 173.297H139.257V177.939H134.615V173.297ZM160.919 173.297H156.277V177.939H160.919V173.297ZM179.487 173.297H184.129V177.939H179.487V173.297ZM205.79 173.297H201.148V177.939H205.79V173.297ZM224.358 173.297H229V177.939H224.358V173.297ZM250.662 173.297H246.02V177.939H250.662V173.297ZM267.682 173.297H272.324V177.939H267.682V173.297ZM295.534 173.297H290.892V177.939H295.534V173.297ZM0 199.601H4.64189V204.243H0V199.601ZM27.8511 199.601H23.2092V204.243H27.8511V199.601ZM44.8717 199.601H49.5136V204.243H44.8717V199.601ZM71.176 199.601H66.5341V204.243H71.176V199.601ZM89.7433 199.601H94.3852V204.243H89.7433V199.601ZM116.047 199.601H111.405V204.243H116.047V199.601ZM134.615 199.601H139.257V204.243H134.615V199.601ZM160.919 199.601H156.277V204.243H160.919V199.601ZM179.487 199.601H184.129V204.243H179.487V199.601ZM205.79 199.601H201.148V204.243H205.79V199.601ZM224.358 199.601H229V204.243H224.358V199.601ZM250.662 199.601H246.02V204.243H250.662V199.601ZM267.682 199.601H272.324V204.243H267.682V199.601ZM295.534 199.601H290.892V204.243H295.534V199.601ZM0 224.358H4.64189V229H0V224.358ZM27.8511 224.358H23.2092V229H27.8511V224.358ZM44.8717 224.358H49.5136V229H44.8717V224.358ZM71.176 224.358H66.5341V229H71.176V224.358ZM89.7433 224.358H94.3852V229H89.7433V224.358ZM116.047 224.358H111.405V229H116.047V224.358ZM134.615 224.358H139.257V229H134.615V224.358ZM160.919 224.358H156.277V229H160.919V224.358ZM179.487 224.358H184.129V229H179.487V224.358ZM205.79 224.358H201.148V229H205.79V224.358ZM224.358 224.358H229V229H224.358V224.358ZM250.662 224.358H246.02V229H250.662V224.358ZM267.682 224.358H272.324V229H267.682V224.358ZM295.534 224.358H290.892V229H295.534V224.358Z" fill="#8099A0"/>
</svg>
