<svg width="16" height="14" viewBox="0 0 16 14" fill="none" xmlns="http://www.w3.org/2000/svg">
<path d="M0.500345 14.0003C0.366345 14.0003 0.232345 13.9463 0.134345 13.8403C-0.0536548 13.6383 -0.0426548 13.3213 0.160345 13.1343L6.76635 7.00031L0.160345 0.86631C-0.0426548 0.67931 -0.0546548 0.36231 0.134345 0.16031C0.323345 -0.0436901 0.640346 -0.0536901 0.840346 0.13431L7.84035 6.63431C7.94235 6.72931 8.00035 6.86131 8.00035 7.00031C8.00035 7.13931 7.94235 7.27131 7.84035 7.36631L0.840346 13.8663C0.744345 13.9563 0.622345 14.0003 0.500345 14.0003Z" fill="white"/>
<path d="M8.50035 14.0003C8.36635 14.0003 8.23235 13.9463 8.13435 13.8403C7.94635 13.6383 7.95735 13.3213 8.16035 13.1343L14.7663 7.00031L8.16035 0.86631C7.95735 0.67931 7.94535 0.36231 8.13435 0.16031C8.32335 -0.0436901 8.64035 -0.0536901 8.84035 0.13431L15.8403 6.63431C15.9423 6.72931 16.0003 6.86131 16.0003 7.00031C16.0003 7.13931 15.9423 7.27131 15.8403 7.36631L8.84035 13.8663C8.74435 13.9563 8.62235 14.0003 8.50035 14.0003Z" fill="white"/>
</svg>
