<svg width="16" height="16" viewBox="0 0 16 16" fill="none" xmlns="http://www.w3.org/2000/svg">
<g clip-path="url(#clip0)">
<path d="M15.4286 7.42854H6.20457C5.8947 6.211 4.65646 5.4752 3.43888 5.78507C2.63142 5.99059 2.00093 6.62109 1.79541 7.42854H0.571439C0.255837 7.42854 0 7.68439 0 7.99998C0 8.31559 0.255837 8.57135 0.571439 8.57135H1.79545C2.10532 9.78895 3.34356 10.5247 4.56114 10.2149C5.36859 10.0094 5.99909 9.37887 6.20461 8.57135H15.4286C15.7442 8.57135 16 8.31559 16 7.99995C16 7.68435 15.7442 7.42854 15.4286 7.42854Z" fill="#0F0622"/>
<path d="M15.4286 1.71399H13.6331C13.3233 0.496447 12.085 -0.239356 10.8674 0.0705207C10.06 0.276034 9.42952 0.906539 9.224 1.71399H0.571439C0.255837 1.71399 0 1.96983 0 2.28543C0 2.60103 0.255837 2.85687 0.571439 2.85687H9.224C9.53384 4.07441 10.7721 4.81022 11.9897 4.50034C12.7971 4.29483 13.4276 3.66432 13.6331 2.85687H15.4286C15.7442 2.85687 16 2.60103 16 2.28543C16 1.96983 15.7442 1.71399 15.4286 1.71399Z" fill="#0F0622"/>
<path d="M15.4286 13.1429H12.4902C12.1804 11.9253 10.9422 11.1895 9.72456 11.4994C8.91712 11.7049 8.28664 12.3354 8.08112 13.1429H0.571439C0.255837 13.1429 0 13.3987 0 13.7142C0 14.0298 0.255837 14.2857 0.571439 14.2857H8.08112C8.39104 15.5033 9.62928 16.239 10.8468 15.9292C11.6543 15.7237 12.2848 15.0932 12.4903 14.2857H15.4286C15.7442 14.2857 16 14.0298 16 13.7142C16 13.3986 15.7442 13.1429 15.4286 13.1429Z" fill="#0F0622"/>
</g>
<defs>
<clipPath id="clip0">
<rect width="16" height="16" fill="white"/>
</clipPath>
</defs>
</svg>
