<svg width="71" height="71" viewBox="0 0 71 71" fill="none" xmlns="http://www.w3.org/2000/svg">
<ellipse cx="35.5556" cy="35.5556" rx="31.5556" ry="31.5556" fill="#E6545B"/>
<path d="M60.6029 10.3971C46.7401 -3.4657 24.2599 -3.4657 10.3971 10.3971C-3.4657 24.2599 -3.4657 46.7401 10.3971 60.6029C24.2599 74.4657 46.7401 74.4657 60.6029 60.6029C74.4657 46.7401 74.4657 24.2599 60.6029 10.3971ZM51.0113 37.6731L39.9211 44.0425L29.3801 50.149C29.1641 50.2741 28.963 50.4257 28.7401 50.5381C28.4118 50.7037 28.0218 50.7865 27.6319 50.7865C26.2082 50.7865 25.0842 49.6625 25.0842 48.2388V35.5V22.6863C25.0842 22.2367 25.1591 21.862 25.3839 21.4124C26.0583 20.2135 27.6319 19.7639 28.8309 20.5132L39.6961 26.7644C39.7453 26.7928 39.8061 26.805 39.8462 26.8452C39.8863 26.8852 39.947 26.8974 39.9961 26.9257L51.0113 33.252C51.2588 33.4004 51.4735 33.5815 51.6771 33.7953C51.8932 34.0222 52.0723 34.2865 52.1689 34.5845C52.5509 35.7631 52.0773 37.0735 51.0113 37.6731Z" fill="white"/>
</svg>
