<svg width="50" height="50" viewBox="0 0 50 50" fill="none" xmlns="http://www.w3.org/2000/svg">
<g clip-path="url(#clip0)">
<path d="M47.4999 22.5H27.5002V2.49985C27.5002 1.12015 26.38 0 24.9998 0C23.6201 0 22.5 1.12015 22.5 2.49985V22.5H2.49985C1.12015 22.5 0 23.6201 0 24.9998C0 26.38 1.12015 27.5002 2.49985 27.5002H22.5V47.4999C22.5 48.88 23.6201 50.0002 24.9998 50.0002C26.38 50.0002 27.5002 48.88 27.5002 47.4999V27.5002H47.4999C48.88 27.5002 50.0002 26.38 50.0002 24.9998C50.0002 23.6201 48.88 22.5 47.4999 22.5V22.5Z" fill="#040921"/>
</g>
<defs>
<clipPath id="clip0">
<rect width="50" height="50" fill="white"/>
</clipPath>
</defs>
</svg>
