<svg width="20" height="20" viewBox="0 0 20 20" fill="none" xmlns="http://www.w3.org/2000/svg">
<path fill-rule="evenodd" clip-rule="evenodd" d="M0 8.5C0 3.81323 3.81323 0 8.5 0C13.187 0 17 3.81323 17 8.5C17 13.187 13.187 17 8.5 17C3.81323 17 0 13.187 0 8.5ZM1.56923 8.50004C1.56923 12.3216 4.6784 15.4308 8.5 15.4308C12.3216 15.4308 15.4308 12.3216 15.4308 8.5C15.4308 4.6784 12.3216 1.56923 8.5 1.56923C4.6784 1.56923 1.56923 4.67844 1.56923 8.50004Z" fill="#070C1E"/>
<path d="M19.7727 18.6756L15.3244 14.2273C15.0213 13.9242 14.5304 13.9242 14.2273 14.2273C13.9242 14.5302 13.9242 15.0216 14.2273 15.3244L18.6756 19.7727C18.8271 19.9242 19.0255 20 19.2241 20C19.4225 20 19.6211 19.9242 19.7727 19.7727C20.0758 19.4698 20.0758 18.9784 19.7727 18.6756Z" fill="#070C1E"/>
</svg>
