<svg width="24" height="24" viewBox="0 0 24 24" fill="none" xmlns="http://www.w3.org/2000/svg">
<path d="M19.304 18.2609C17.8661 18.2609 16.6953 19.4317 16.6953 20.8696C16.6953 22.3075 17.866 23.4783 19.304 23.4783C20.7419 23.4783 21.9127 22.3075 21.9127 20.8696C21.9127 19.4316 20.7419 18.2609 19.304 18.2609ZM19.304 22.4348C18.441 22.4348 17.7388 21.7325 17.7388 20.8696C17.7388 20.0066 18.441 19.3043 19.304 19.3043C20.167 19.3043 20.8692 20.0066 20.8692 20.8696C20.8692 21.7325 20.1669 22.4348 19.304 22.4348Z" fill="#0F0622"/>
<path d="M8.8704 18.2609C7.4325 18.2609 6.26172 19.4317 6.26172 20.8696C6.26172 22.3075 7.4325 23.4783 8.8704 23.4783C10.3083 23.4783 11.4791 22.3075 11.4791 20.8696C11.4791 19.4317 10.3083 18.2609 8.8704 18.2609ZM8.8704 22.4348C8.00743 22.4348 7.30518 21.7325 7.30518 20.8696C7.30518 20.0066 8.00743 19.3043 8.8704 19.3043C9.73338 19.3043 10.4356 20.0066 10.4356 20.8696C10.4356 21.7325 9.73338 22.4348 8.8704 22.4348Z" fill="#0F0622"/>
<path d="M21.3913 16.1739H9.34852C8.10989 16.1739 7.0341 15.2922 6.79095 14.0765L4.16348 0.941192C4.11442 0.697018 3.90053 0.521713 3.6522 0.521713H0.521756C0.233756 0.521713 0 0.755469 0 1.04347C0 1.33147 0.233756 1.56523 0.521756 1.56523H3.22435L5.7673 14.2821C6.10749 15.983 7.61426 17.2174 9.34852 17.2174H21.3913C21.6793 17.2174 21.9131 16.9837 21.9131 16.6957C21.9131 16.4077 21.6793 16.1739 21.3913 16.1739Z" fill="#0F0622"/>
<path d="M23.8695 3.82852C23.7704 3.71685 23.6285 3.65219 23.4782 3.65219H4.69558C4.40758 3.65219 4.17383 3.88595 4.17383 4.17395C4.17383 4.46195 4.40758 4.69566 4.69558 4.69566H22.8876L22.1457 10.6289C22.0476 11.4105 21.3797 12 20.592 12H6.2608C5.9728 12 5.73905 12.2338 5.73905 12.5218C5.73905 12.8098 5.9728 13.0435 6.2608 13.0435H20.592C21.9046 13.0435 23.018 12.0616 23.1808 10.7583L23.9958 4.23861C24.0145 4.0904 23.9687 3.94014 23.8695 3.82852Z" fill="#0F0622"/>
</svg>
